<svg width="93" height="25" viewBox="0 0 93 25" fill="none" xmlns="http://www.w3.org/2000/svg">
<path d="M29.3848 18.7656C29.3848 18.8958 29.2969 18.9609 29.1211 18.9609L26.9238 19.0391C26.8262 19.0326 26.7546 18.9707 26.709 18.8535L24.2578 12.6426L23.5742 18.7266C23.5547 18.8828 23.4733 18.9642 23.3301 18.9707L21.2891 19.0391C21.1458 19.026 21.0742 18.9642 21.0742 18.8535L22.7637 4.15625C22.7767 4.03906 22.806 3.96094 22.8516 3.92188C22.8971 3.8763 23.2422 3.82747 23.8867 3.77539C24.5312 3.7168 25.3906 3.6875 26.4648 3.6875C27.5391 3.6875 28.3659 3.97396 28.9453 4.54688C29.5312 5.11328 29.8242 5.8457 29.8242 6.74414C29.8242 7.64258 29.7168 8.43685 29.502 9.12695C29.2871 9.81055 28.9323 10.4258 28.4375 10.9727C27.9427 11.5195 27.3242 11.9264 26.582 12.1934L29.3555 18.6484C29.375 18.6875 29.3848 18.7266 29.3848 18.7656ZM25.0098 5.96289L24.4629 10.8164C25.6673 10.7448 26.4974 10.1979 26.9531 9.17578C27.2005 8.61589 27.3242 8.04948 27.3242 7.47656C27.3242 6.89714 27.2038 6.49349 26.9629 6.26562C26.7285 6.03125 26.3867 5.91406 25.9375 5.91406C25.4883 5.91406 25.179 5.93034 25.0098 5.96289ZM36.5828 12.3203L33.5457 12.4375L33.0867 16.4414L36.827 16.3145C36.9962 16.321 37.0809 16.4056 37.0809 16.5684L36.827 18.5898C36.8139 18.7266 36.7293 18.8112 36.573 18.8438L30.5672 19.0391C30.424 19.0391 30.3523 18.9772 30.3523 18.8535L32.0418 4.07812C32.0678 3.94141 32.1525 3.86654 32.2957 3.85352L37.6473 3.66797C37.81 3.6875 37.8914 3.77539 37.8914 3.93164L37.6473 5.95312C37.6277 6.11589 37.5431 6.20378 37.3934 6.2168L34.2488 6.30469L33.8289 9.9375L36.8367 9.83008C37.006 9.83659 37.0906 9.92122 37.0906 10.084L36.8367 12.0762C36.8107 12.2259 36.726 12.3073 36.5828 12.3203ZM41.2223 3.54102L44.2887 3.43359C44.4124 3.43359 44.4742 3.51823 44.4742 3.6875L43.0191 16.5293L44.65 16.4609C44.8062 16.4674 44.8844 16.5488 44.8844 16.7051L44.65 18.5801C44.6305 18.7493 44.5491 18.8372 44.4059 18.8438L38.7809 19.0391C38.6181 19.0326 38.5367 18.9544 38.5367 18.8047L38.7613 16.9199C38.7809 16.7572 38.8655 16.6758 39.0152 16.6758L40.5484 16.6172L41.7398 6.09961L40.2262 6.14844C40.0634 6.14193 39.982 6.06706 39.982 5.92383C39.982 5.83919 40.109 5.50065 40.3629 4.9082C40.6168 4.31576 40.7861 3.94466 40.8707 3.79492C40.9553 3.63867 41.0725 3.55404 41.2223 3.54102ZM50.0023 19.1465C48.0557 19.1465 47.0824 17.8965 47.0824 15.3965C47.0824 14.765 47.141 13.7786 47.2582 12.4375C47.3754 11.0964 47.5219 9.93099 47.6977 8.94141C47.8799 7.95182 48.0004 7.30729 48.059 7.00781C48.1241 6.70833 48.212 6.37305 48.3227 6.00195C48.4398 5.63086 48.5603 5.32812 48.684 5.09375C48.8077 4.85938 48.9672 4.61849 49.1625 4.37109C49.3578 4.1237 49.5759 3.92839 49.8168 3.78516C50.3572 3.47266 51.0147 3.31641 51.7895 3.31641C53.723 3.31641 54.6898 4.59245 54.6898 7.14453C54.6898 7.78255 54.6313 8.76562 54.5141 10.0938C54.3969 11.4219 54.2536 12.5742 54.0844 13.5508C53.9151 14.5208 53.7979 15.1589 53.7328 15.4648C53.6677 15.7643 53.5798 16.0996 53.4691 16.4707C53.3585 16.8353 53.238 17.138 53.1078 17.3789C52.9841 17.6133 52.8246 17.8542 52.6293 18.1016C52.434 18.3424 52.2159 18.5312 51.975 18.668C51.4346 18.987 50.7771 19.1465 50.0023 19.1465ZM50.266 8.0625C50.1163 8.92839 49.9633 10.1491 49.807 11.7246C49.6573 13.2936 49.5824 14.5306 49.5824 15.4355C49.5824 16.3405 49.8201 16.793 50.2953 16.793C50.5753 16.793 50.8096 16.6139 50.9984 16.2559C51.1872 15.8978 51.3565 15.2891 51.5063 14.4297C51.6625 13.5638 51.8155 12.3431 51.9652 10.7676C52.1215 9.19206 52.1996 7.94857 52.1996 7.03711C52.1996 6.12565 51.962 5.66992 51.4867 5.66992C51.2133 5.66992 50.9789 5.85221 50.7836 6.2168C50.5948 6.57487 50.4223 7.1901 50.266 8.0625ZM58.6164 19.1465C56.6698 19.1465 55.6965 17.8965 55.6965 15.3965C55.6965 14.765 55.7551 13.7786 55.8723 12.4375C55.9895 11.0964 56.1359 9.93099 56.3117 8.94141C56.494 7.95182 56.6145 7.30729 56.673 7.00781C56.7382 6.70833 56.826 6.37305 56.9367 6.00195C57.0539 5.63086 57.1743 5.32812 57.298 5.09375C57.4217 4.85938 57.5812 4.61849 57.7766 4.37109C57.9719 4.1237 58.19 3.92839 58.4309 3.78516C58.9712 3.47266 59.6288 3.31641 60.4035 3.31641C62.3371 3.31641 63.3039 4.59245 63.3039 7.14453C63.3039 7.78255 63.2453 8.76562 63.1281 10.0938C63.0109 11.4219 62.8677 12.5742 62.6984 13.5508C62.5292 14.5208 62.412 15.1589 62.3469 15.4648C62.2818 15.7643 62.1939 16.0996 62.0832 16.4707C61.9725 16.8353 61.8521 17.138 61.7219 17.3789C61.5982 17.6133 61.4387 17.8542 61.2434 18.1016C61.048 18.3424 60.8299 18.5312 60.5891 18.668C60.0487 18.987 59.3911 19.1465 58.6164 19.1465ZM58.8801 8.0625C58.7303 8.92839 58.5773 10.1491 58.4211 11.7246C58.2714 13.2936 58.1965 14.5306 58.1965 15.4355C58.1965 16.3405 58.4341 16.793 58.9094 16.793C59.1893 16.793 59.4237 16.6139 59.6125 16.2559C59.8013 15.8978 59.9706 15.2891 60.1203 14.4297C60.2766 13.5638 60.4296 12.3431 60.5793 10.7676C60.7355 9.19206 60.8137 7.94857 60.8137 7.03711C60.8137 6.12565 60.576 5.66992 60.1008 5.66992C59.8273 5.66992 59.593 5.85221 59.3977 6.2168C59.2089 6.57487 59.0363 7.1901 58.8801 8.0625ZM72.5527 18.7656C72.5527 18.8958 72.4648 18.9609 72.2891 18.9609L70.0918 19.0391C69.9941 19.0326 69.9225 18.9707 69.877 18.8535L67.4258 12.6426L66.7422 18.7266C66.7227 18.8828 66.6413 18.9642 66.498 18.9707L64.457 19.0391C64.3138 19.026 64.2422 18.9642 64.2422 18.8535L65.9316 4.15625C65.9447 4.03906 65.974 3.96094 66.0195 3.92188C66.0651 3.8763 66.4102 3.82747 67.0547 3.77539C67.6992 3.7168 68.5586 3.6875 69.6328 3.6875C70.707 3.6875 71.5339 3.97396 72.1133 4.54688C72.6992 5.11328 72.9922 5.8457 72.9922 6.74414C72.9922 7.64258 72.8848 8.43685 72.6699 9.12695C72.4551 9.81055 72.1003 10.4258 71.6055 10.9727C71.1107 11.5195 70.4922 11.9264 69.75 12.1934L72.5234 18.6484C72.543 18.6875 72.5527 18.7266 72.5527 18.7656ZM68.1777 5.96289L67.6309 10.8164C68.8353 10.7448 69.6654 10.1979 70.1211 9.17578C70.3685 8.61589 70.4922 8.04948 70.4922 7.47656C70.4922 6.89714 70.3717 6.49349 70.1309 6.26562C69.8965 6.03125 69.5547 5.91406 69.1055 5.91406C68.6562 5.91406 68.347 5.93034 68.1777 5.96289ZM78.5887 18.7949L78.6668 18.043C77.879 18.7526 76.9871 19.1074 75.991 19.1074C75.2423 19.1074 74.6889 18.834 74.3309 18.2871C73.9793 17.7402 73.8035 17.0566 73.8035 16.2363C73.8035 16.0996 73.8165 15.9141 73.8426 15.6797L74.7703 7.50586C74.7898 7.34961 74.8712 7.26823 75.0145 7.26172L76.9871 7.18359C77.1238 7.19661 77.1922 7.26497 77.1922 7.38867L76.3133 15.0938C76.2938 15.263 76.284 15.4193 76.284 15.5625C76.284 16.1094 76.3882 16.474 76.5965 16.6562C76.8113 16.8385 77.1303 16.9297 77.5535 16.9297C77.9832 16.9297 78.4064 16.8483 78.823 16.6855L79.8582 7.50586C79.8777 7.34961 79.9591 7.26823 80.1023 7.26172L82.075 7.19336C82.2117 7.20638 82.2801 7.27474 82.2801 7.39844L81.0105 18.6973C80.991 18.8535 80.9031 18.9382 80.7469 18.9512L78.8426 19.0391C78.6733 19.0326 78.5887 18.9512 78.5887 18.7949ZM86.8219 7.44727L86.7145 8.3457C87.652 7.51888 88.5504 7.10547 89.4098 7.10547C90.5035 7.10547 91.1936 7.70443 91.4801 8.90234C91.5582 9.22786 91.5973 9.53711 91.5973 9.83008C91.5973 10.1165 91.5875 10.3477 91.568 10.5234L90.6305 18.707C90.6044 18.8698 90.523 18.9577 90.3863 18.9707L88.4137 19.0391C88.2704 19.026 88.1988 18.9642 88.1988 18.8535L89.0875 11.1191C89.107 10.9499 89.1168 10.7969 89.1168 10.6602C89.1168 10.1263 88.9898 9.76497 88.7359 9.57617C88.4885 9.38086 88.1728 9.2832 87.7887 9.2832C87.4046 9.2832 87.0042 9.36458 86.5875 9.52734L85.5426 18.707C85.5165 18.8698 85.4352 18.9577 85.2984 18.9707L83.3258 19.0391C83.1826 19.026 83.1109 18.9642 83.1109 18.8535L84.4 7.49609C84.426 7.35286 84.5074 7.27474 84.6441 7.26172L86.5582 7.19336C86.734 7.19987 86.8219 7.28451 86.8219 7.44727Z" fill="#3ECF8E"/>
<path fill-rule="evenodd" clip-rule="evenodd" d="M8.5 20C13.1944 20 17 16.1944 17 11.5C17 6.80558 13.1944 3 8.5 3C3.80558 3 0 6.80558 0 11.5C0 16.1944 3.80558 20 8.5 20ZM4.13114 12.3105C5.83131 10.1012 9.32438 5.59691 9.69532 5.25481C10.159 4.82719 10.3908 5.01578 10.3908 5.25481C10.3908 5.68246 9.50212 8.4976 8.9998 10.0655L12.7092 10.0656C12.8252 10.0656 13.1266 10.2366 12.9411 10.4932C12.7556 10.7497 7.07706 17.8255 7.02915 17.8696C6.98125 17.9138 6.73655 18.0554 6.56547 17.9765C6.39439 17.8976 6.33363 17.7627 6.33363 17.6558C6.33363 17.5489 7.95652 13.0589 7.95652 13.0589L4.24706 12.952C4.24706 12.952 4.06215 12.848 4.01522 12.7382C3.94681 12.578 4.13114 12.3105 4.13114 12.3105Z" fill="#3ECF8E"/>
</svg>
