<svg width="124" height="29" viewBox="0 0 124 29" fill="none" xmlns="http://www.w3.org/2000/svg">
<path d="M29.72 6.6C31.24 6.6 32.32 6.93333 32.96 7.6C33.44 8.10667 33.68 8.74667 33.68 9.52C33.68 9.78667 33.6533 10.0667 33.6 10.36L33.32 11.92C33.16 12.7867 32.88 13.4867 32.48 14.02C32.0933 14.5533 31.66 14.9333 31.18 15.16L33 21H28.96L27.28 15.62H26.04L25.22 21H21.38L23.92 6.6H29.72ZM28.46 9.72H26.96L26.44 13.2H27.84C28.5467 13.2 29.0533 13.0333 29.36 12.7C29.6667 12.3533 29.82 11.9 29.82 11.34C29.82 10.26 29.3667 9.72 28.46 9.72ZM44.945 21H34.905L37.445 6.6H47.485L46.925 9.72H40.485L40.025 12.42H45.345L44.785 15.54H39.465L39.065 17.88H45.505L44.945 21ZM54.9487 21H51.3287L53.0287 11.4C52.7087 11.92 52.1221 12.42 51.2687 12.9C50.4154 13.38 49.5221 13.62 48.5887 13.62L48.3287 10.26C49.5821 10.26 50.7554 9.88 51.8487 9.12C52.9421 8.34667 53.6154 7.50667 53.8687 6.6H57.4688L54.9487 21ZM65.9259 6.46C69.0726 6.46 70.6459 7.87333 70.6459 10.7C70.6459 11.22 70.5926 11.7933 70.4859 12.42L70.0059 15.22C69.6593 17.26 68.9393 18.78 67.8459 19.78C66.7659 20.78 65.2593 21.28 63.3259 21.28C61.4059 21.28 60.0793 20.7867 59.3459 19.8C58.8526 19.12 58.6059 18.2 58.6059 17.04C58.6059 16.48 58.6593 15.8733 58.7659 15.22L59.2459 12.42C59.9393 8.44667 62.1659 6.46 65.9259 6.46ZM62.2459 16.42C62.2459 17.5933 62.7859 18.18 63.8659 18.18C64.5326 18.18 65.0726 17.96 65.4859 17.52C65.9126 17.08 66.2259 16.2867 66.4259 15.14L66.8859 12.5C66.9659 12.06 67.0059 11.68 67.0059 11.36C67.0059 10.16 66.4726 9.56 65.4059 9.56C64.0459 9.58667 63.1926 10.5667 62.8459 12.5L62.3659 15.14C62.2859 15.6333 62.2459 16.06 62.2459 16.42ZM79.5486 6.46C82.6953 6.46 84.2686 7.87333 84.2686 10.7C84.2686 11.22 84.2153 11.7933 84.1086 12.42L83.6286 15.22C83.2819 17.26 82.5619 18.78 81.4686 19.78C80.3886 20.78 78.8819 21.28 76.9486 21.28C75.0286 21.28 73.7019 20.7867 72.9686 19.8C72.4753 19.12 72.2286 18.2 72.2286 17.04C72.2286 16.48 72.2819 15.8733 72.3886 15.22L72.8686 12.42C73.5619 8.44667 75.7886 6.46 79.5486 6.46ZM75.8686 16.42C75.8686 17.5933 76.4086 18.18 77.4886 18.18C78.1553 18.18 78.6953 17.96 79.1086 17.52C79.5353 17.08 79.8486 16.2867 80.0486 15.14L80.5086 12.5C80.5886 12.06 80.6286 11.68 80.6286 11.36C80.6286 10.16 80.0953 9.56 79.0286 9.56C77.6686 9.58667 76.8153 10.5667 76.4686 12.5L75.9886 15.14C75.9086 15.6333 75.8686 16.06 75.8686 16.42ZM93.7513 6.6C95.2713 6.6 96.3513 6.93333 96.9913 7.6C97.4713 8.10667 97.7113 8.74667 97.7113 9.52C97.7113 9.78667 97.6846 10.0667 97.6313 10.36L97.3513 11.92C97.1913 12.7867 96.9113 13.4867 96.5113 14.02C96.1246 14.5533 95.6913 14.9333 95.2113 15.16L97.0313 21H92.9913L91.3113 15.62H90.0713L89.2513 21H85.4113L87.9513 6.6H93.7513ZM92.4913 9.72H90.9913L90.4713 13.2H91.8713C92.5779 13.2 93.0846 13.0333 93.3913 12.7C93.6979 12.3533 93.8513 11.9 93.8513 11.34C93.8513 10.26 93.3979 9.72 92.4913 9.72ZM108.539 17.92C108.539 18.2667 108.712 18.44 109.059 18.44C109.419 18.44 109.719 18.3733 109.959 18.24L109.859 20.5C109.219 21.02 108.499 21.28 107.699 21.28C106.192 21.28 105.372 20.7 105.239 19.54C104.439 20.7 103.359 21.28 101.999 21.28C100.652 21.28 99.7786 20.9733 99.3786 20.36C99.1119 19.9733 98.9786 19.5333 98.9786 19.04C98.9786 18.5467 99.0186 18.0933 99.0986 17.68L100.219 11.38H103.619L102.679 16.7C102.639 16.94 102.619 17.18 102.619 17.42C102.619 18.06 102.979 18.38 103.699 18.38C104.299 18.38 104.779 18.1733 105.139 17.76L106.279 11.38H109.679L108.559 17.68C108.545 17.76 108.539 17.84 108.539 17.92ZM118.043 14.86C118.043 14.2867 117.763 14 117.203 14C116.657 14 116.203 14.2067 115.843 14.62L114.723 21H111.323L113.023 11.38H116.183L115.963 12.56C116.75 11.5867 117.743 11.1 118.943 11.1C120.143 11.1 120.923 11.3933 121.283 11.98C121.51 12.3533 121.623 12.78 121.623 13.26C121.623 13.74 121.59 14.1867 121.523 14.6L120.983 17.68C120.97 17.76 120.963 17.8333 120.963 17.9C120.963 18.26 121.163 18.44 121.563 18.44C121.87 18.44 122.143 18.3733 122.383 18.24L122.283 20.5C121.657 21.02 120.943 21.28 120.143 21.28C118.33 21.28 117.423 20.52 117.423 19C117.423 18.7333 117.45 18.4467 117.503 18.14L117.983 15.48C118.023 15.24 118.043 15.0333 118.043 14.86Z" fill="#3ECF8E"/>
<path d="M32.96 7.6L33.323 7.25612L33.3207 7.25373L32.96 7.6ZM33.6 10.36L33.1081 10.2706L33.1079 10.2717L33.6 10.36ZM33.32 11.92L33.8117 12.0108L33.8121 12.0083L33.32 11.92ZM32.48 14.02L32.0799 13.72L32.0752 13.7265L32.48 14.02ZM31.18 15.16L30.9665 14.7079L30.5733 14.8936L30.7026 15.3088L31.18 15.16ZM33 21V21.5H33.6795L33.4774 20.8512L33 21ZM28.96 21L28.4827 21.149L28.5923 21.5H28.96V21ZM27.28 15.62L27.7573 15.471L27.6477 15.12H27.28V15.62ZM26.04 15.62V15.12H25.6104L25.5457 15.5447L26.04 15.62ZM25.22 21V21.5H25.6496L25.7143 21.0753L25.22 21ZM21.38 21L20.8876 20.9131L20.7841 21.5H21.38V21ZM23.92 6.6V6.1H23.5005L23.4276 6.51315L23.92 6.6ZM26.96 9.72V9.22H26.5292L26.4655 9.64611L26.96 9.72ZM26.44 13.2L25.9455 13.1261L25.8597 13.7H26.44V13.2ZM29.36 12.7L29.728 13.0386L29.7345 13.0313L29.36 12.7ZM29.72 7.1C31.1879 7.1 32.0992 7.42528 32.5993 7.94627L33.3207 7.25373C32.5408 6.44139 31.2921 6.1 29.72 6.1V7.1ZM32.597 7.94387C32.9792 8.3473 33.18 8.85957 33.18 9.52H34.18C34.18 8.63376 33.9008 7.86603 33.323 7.25613L32.597 7.94387ZM33.18 9.52C33.18 9.7534 33.1567 10.0033 33.1081 10.2706L34.0919 10.4494C34.15 10.13 34.18 9.81993 34.18 9.52H33.18ZM33.1079 10.2717L32.8279 11.8317L33.8121 12.0083L34.0921 10.4483L33.1079 10.2717ZM32.8283 11.8292C32.678 12.6434 32.4213 13.265 32.08 13.72L32.88 14.32C33.3387 13.7084 33.642 12.9299 33.8117 12.0108L32.8283 11.8292ZM32.0752 13.7265C31.7262 14.2079 31.3542 14.5248 30.9665 14.7079L31.3935 15.6121C31.9658 15.3419 32.4605 14.8988 32.8848 14.3135L32.0752 13.7265ZM30.7026 15.3088L32.5226 21.1488L33.4774 20.8512L31.6574 15.0112L30.7026 15.3088ZM33 20.5H28.96V21.5H33V20.5ZM29.4373 20.851L27.7573 15.471L26.8027 15.769L28.4827 21.149L29.4373 20.851ZM27.28 15.12H26.04V16.12H27.28V15.12ZM25.5457 15.5447L24.7257 20.9247L25.7143 21.0753L26.5343 15.6953L25.5457 15.5447ZM25.22 20.5H21.38V21.5H25.22V20.5ZM21.8724 21.0869L24.4124 6.68685L23.4276 6.51315L20.8876 20.9131L21.8724 21.0869ZM23.92 7.1H29.72V6.1H23.92V7.1ZM28.46 9.22H26.96V10.22H28.46V9.22ZM26.4655 9.64611L25.9455 13.1261L26.9345 13.2739L27.4545 9.79389L26.4655 9.64611ZM26.44 13.7H27.84V12.7H26.44V13.7ZM27.84 13.7C28.6093 13.7 29.2847 13.5204 29.728 13.0385L28.992 12.3615C28.822 12.5463 28.484 12.7 27.84 12.7V13.7ZM29.7345 13.0313C30.1382 12.5749 30.32 11.9952 30.32 11.34H29.32C29.32 11.8048 29.1951 12.1317 28.9855 12.3687L29.7345 13.0313ZM30.32 11.34C30.32 10.7422 30.1964 10.2007 29.8629 9.80351C29.5155 9.38961 29.0156 9.22 28.46 9.22V10.22C28.8111 10.22 28.9912 10.3204 29.0971 10.4465C29.217 10.5893 29.32 10.8578 29.32 11.34H30.32ZM44.945 21V21.5H45.3632L45.4371 21.0883L44.945 21ZM34.905 21L34.4126 20.9131L34.3091 21.5H34.905V21ZM37.445 6.6V6.1H37.0255L36.9526 6.51315L37.445 6.6ZM47.485 6.6L47.9771 6.68833L48.0827 6.1H47.485V6.6ZM46.925 9.72V10.22H47.3432L47.4171 9.80833L46.925 9.72ZM40.485 9.72V9.22H40.063L39.9921 9.63602L40.485 9.72ZM40.025 12.42L39.5321 12.336L39.4326 12.92H40.025V12.42ZM45.345 12.42L45.8371 12.5083L45.9427 11.92H45.345V12.42ZM44.785 15.54V16.04H45.2032L45.2771 15.6283L44.785 15.54ZM39.465 15.54V15.04H39.0432L38.9721 15.4558L39.465 15.54ZM39.065 17.88L38.5721 17.7958L38.4723 18.38H39.065V17.88ZM45.505 17.88L45.9971 17.9683L46.1027 17.38H45.505V17.88ZM44.945 20.5H34.905V21.5H44.945V20.5ZM35.3974 21.0869L37.9374 6.68685L36.9526 6.51315L34.4126 20.9131L35.3974 21.0869ZM37.445 7.1H47.485V6.1H37.445V7.1ZM46.9929 6.51167L46.4329 9.63167L47.4171 9.80833L47.9771 6.68833L46.9929 6.51167ZM46.925 9.22H40.485V10.22H46.925V9.22ZM39.9921 9.63602L39.5321 12.336L40.5179 12.504L40.9779 9.80397L39.9921 9.63602ZM40.025 12.92H45.345V11.92H40.025V12.92ZM44.8529 12.3317L44.2929 15.4517L45.2771 15.6283L45.8371 12.5083L44.8529 12.3317ZM44.785 15.04H39.465V16.04H44.785V15.04ZM38.9721 15.4558L38.5721 17.7958L39.5579 17.9642L39.9579 15.6242L38.9721 15.4558ZM39.065 18.38H45.505V17.38H39.065V18.38ZM45.0129 17.7917L44.4529 20.9117L45.4371 21.0883L45.9971 17.9683L45.0129 17.7917ZM54.9487 21V21.5H55.3688L55.4413 21.0862L54.9487 21ZM51.3287 21L50.8364 20.9128L50.7324 21.5H51.3287V21ZM53.0287 11.4L53.5211 11.4872L52.6029 11.138L53.0287 11.4ZM51.2687 12.9L51.0236 12.4642L51.0236 12.4642L51.2687 12.9ZM48.5887 13.62L48.0902 13.6586L48.1259 14.12H48.5887V13.62ZM48.3287 10.26V9.76H47.7886L47.8302 10.2986L48.3287 10.26ZM51.8487 9.12L52.1341 9.53057L52.1375 9.52821L51.8487 9.12ZM53.8687 6.6V6.1H53.4893L53.3872 6.46545L53.8687 6.6ZM57.4688 6.6L57.9613 6.68619L58.0638 6.1H57.4688V6.6ZM54.9487 20.5H51.3287V21.5H54.9487V20.5ZM51.8211 21.0872L53.5211 11.4872L52.5364 11.3128L50.8364 20.9128L51.8211 21.0872ZM52.6029 11.138C52.3465 11.5546 51.8431 12.0033 51.0236 12.4642L51.5139 13.3358C52.4011 12.8367 53.071 12.2854 53.4546 11.662L52.6029 11.138ZM51.0236 12.4642C50.2413 12.9043 49.4319 13.12 48.5887 13.12V14.12C49.6122 14.12 50.5895 13.8557 51.5139 13.3358L51.0236 12.4642ZM49.0873 13.5814L48.8273 10.2214L47.8302 10.2986L48.0902 13.6586L49.0873 13.5814ZM48.3287 10.76C49.6906 10.76 50.9625 10.3449 52.1341 9.53055L51.5634 8.70944C50.5483 9.41505 49.4735 9.76 48.3287 9.76V10.76ZM52.1375 9.52821C53.2858 8.71599 54.0553 7.79035 54.3503 6.73455L53.3872 6.46545C53.1755 7.22298 52.5984 7.97734 51.56 8.71179L52.1375 9.52821ZM53.8687 7.1H57.4688V6.1H53.8687V7.1ZM56.9762 6.51381L54.4562 20.9138L55.4413 21.0862L57.9613 6.68619L56.9762 6.51381ZM70.4859 12.42L70.9788 12.5045L70.9788 12.5039L70.4859 12.42ZM70.0059 15.22L69.5131 15.1355L69.513 15.1362L70.0059 15.22ZM67.8459 19.78L67.5085 19.411L67.5062 19.4131L67.8459 19.78ZM59.3459 19.8L58.9412 20.0936L58.9446 20.0983L59.3459 19.8ZM58.7659 15.22L58.2731 15.1355L58.2725 15.1394L58.7659 15.22ZM59.2459 12.42L58.7534 12.334L58.7531 12.3355L59.2459 12.42ZM65.4859 17.52L65.1269 17.1719L65.1215 17.1777L65.4859 17.52ZM66.4259 15.14L66.9185 15.2259L66.9185 15.2258L66.4259 15.14ZM66.8859 12.5L66.394 12.4106L66.3934 12.4142L66.8859 12.5ZM65.4059 9.56V9.0599L65.3961 9.0601L65.4059 9.56ZM62.8459 12.5L63.3379 12.5894L63.3381 12.5882L62.8459 12.5ZM62.3659 15.14L61.8739 15.0505L61.8724 15.06L62.3659 15.14ZM65.9259 6.96C67.4346 6.96 68.4728 7.29998 69.1318 7.89196C69.7806 8.47478 70.1459 9.37842 70.1459 10.7H71.1459C71.1459 9.19491 70.7246 7.97855 69.8001 7.14804C68.8857 6.32669 67.5639 5.96 65.9259 5.96V6.96ZM70.1459 10.7C70.1459 11.1865 70.096 11.7313 69.993 12.3361L70.9788 12.5039C71.0892 11.8554 71.1459 11.2535 71.1459 10.7H70.1459ZM69.9931 12.3355L69.5131 15.1355L70.4987 15.3045L70.9788 12.5045L69.9931 12.3355ZM69.513 15.1362C69.1777 17.1092 68.4926 18.5109 67.5085 19.411L68.1834 20.149C69.3859 19.0491 70.1408 17.4108 70.4989 15.3038L69.513 15.1362ZM67.5062 19.4131C66.5446 20.3035 65.1739 20.78 63.3259 20.78V21.78C65.3447 21.78 66.9872 21.2565 68.1856 20.1469L67.5062 19.4131ZM63.3259 20.78C61.4734 20.78 60.3428 20.303 59.7472 19.5017L58.9446 20.0983C59.8158 21.2703 61.3385 21.78 63.3259 21.78V20.78ZM59.7506 19.5064C59.3389 18.9388 59.1059 18.1338 59.1059 17.04H58.1059C58.1059 18.2662 58.3663 19.3012 58.9412 20.0936L59.7506 19.5064ZM59.1059 17.04C59.1059 16.5113 59.1563 15.9319 59.2594 15.3006L58.2725 15.1394C58.1622 15.8147 58.1059 16.4487 58.1059 17.04H59.1059ZM59.2587 15.3045L59.7387 12.5045L58.7531 12.3355L58.2731 15.1355L59.2587 15.3045ZM59.7385 12.5059C60.0726 10.5914 60.7648 9.21884 61.7688 8.32309C62.7685 7.43111 64.1357 6.96 65.9259 6.96V5.96C63.9562 5.96 62.33 6.48222 61.1031 7.57691C59.8804 8.66782 59.1126 10.2752 58.7534 12.3341L59.7385 12.5059ZM61.7459 16.42C61.7459 17.0739 61.8955 17.6576 62.2831 18.0786C62.6778 18.5075 63.2377 18.68 63.8659 18.68V17.68C63.4142 17.68 63.1641 17.5592 63.0188 17.4014C62.8663 17.2357 62.7459 16.9394 62.7459 16.42H61.7459ZM63.8659 18.68C64.6547 18.68 65.3321 18.414 65.8504 17.8623L65.1215 17.1777C64.8131 17.506 64.4105 17.68 63.8659 17.68V18.68ZM65.8449 17.8681C66.3804 17.3158 66.7144 16.396 66.9185 15.2259L65.9334 15.0541C65.7375 16.1774 65.4448 16.8442 65.127 17.1719L65.8449 17.8681ZM66.9185 15.2258L67.3785 12.5858L66.3934 12.4142L65.9334 15.0542L66.9185 15.2258ZM67.3779 12.5894C67.4613 12.1306 67.5059 11.7192 67.5059 11.36H66.5059C66.5059 11.6408 66.4706 11.9894 66.394 12.4106L67.3779 12.5894ZM67.5059 11.36C67.5059 10.6965 67.3598 10.1055 66.9796 9.67782C66.5895 9.23895 66.0326 9.06 65.4059 9.06V10.06C65.8459 10.06 66.089 10.181 66.2322 10.3422C66.3854 10.5145 66.5059 10.8235 66.5059 11.36H67.5059ZM65.3961 9.0601C64.5825 9.07605 63.893 9.38467 63.3689 9.98666C62.8599 10.5711 62.5355 11.3983 62.3538 12.4118L63.3381 12.5882C63.503 11.6684 63.7786 11.0389 64.123 10.6433C64.4522 10.2653 64.8694 10.0706 65.4157 10.0599L65.3961 9.0601ZM62.354 12.4106L61.874 15.0506L62.8579 15.2294L63.3379 12.5894L62.354 12.4106ZM61.8724 15.06C61.7896 15.5704 61.7459 16.0251 61.7459 16.42H62.7459C62.7459 16.0949 62.7823 15.6963 62.8595 15.22L61.8724 15.06ZM84.1086 12.42L84.6014 12.5045L84.6015 12.5039L84.1086 12.42ZM83.6286 15.22L83.1358 15.1355L83.1357 15.1362L83.6286 15.22ZM81.4686 19.78L81.1311 19.411L81.1289 19.4131L81.4686 19.78ZM72.9686 19.8L72.5639 20.0936L72.5673 20.0983L72.9686 19.8ZM72.3886 15.22L71.8958 15.1355L71.8951 15.1394L72.3886 15.22ZM72.8686 12.42L72.376 12.334L72.3758 12.3355L72.8686 12.42ZM79.1086 17.52L78.7496 17.1719L78.7442 17.1777L79.1086 17.52ZM80.0486 15.14L80.5412 15.2259L80.5412 15.2258L80.0486 15.14ZM80.5086 12.5L80.0166 12.4106L80.016 12.4142L80.5086 12.5ZM79.0286 9.56V9.0599L79.0188 9.0601L79.0286 9.56ZM76.4686 12.5L76.9605 12.5894L76.9607 12.5882L76.4686 12.5ZM75.9886 15.14L75.4966 15.0505L75.495 15.06L75.9886 15.14ZM79.5486 6.96C81.0573 6.96 82.0955 7.29998 82.7545 7.89196C83.4033 8.47478 83.7686 9.37842 83.7686 10.7H84.7686C84.7686 9.19491 84.3473 7.97855 83.4227 7.14804C82.5084 6.32669 81.1866 5.96 79.5486 5.96V6.96ZM83.7686 10.7C83.7686 11.1865 83.7186 11.7313 83.6157 12.3361L84.6015 12.5039C84.7119 11.8554 84.7686 11.2535 84.7686 10.7H83.7686ZM83.6158 12.3355L83.1358 15.1355L84.1214 15.3045L84.6014 12.5045L83.6158 12.3355ZM83.1357 15.1362C82.8004 17.1092 82.1153 18.5109 81.1311 19.411L81.806 20.149C83.0086 19.0491 83.7635 17.4108 84.1215 15.3038L83.1357 15.1362ZM81.1289 19.4131C80.1673 20.3035 78.7965 20.78 76.9486 20.78V21.78C78.9673 21.78 80.6099 21.2565 81.8083 20.1469L81.1289 19.4131ZM76.9486 20.78C75.096 20.78 73.9654 20.303 73.3699 19.5017L72.5673 20.0983C73.4384 21.2703 74.9612 21.78 76.9486 21.78V20.78ZM73.3733 19.5064C72.9615 18.9388 72.7286 18.1338 72.7286 17.04H71.7286C71.7286 18.2662 71.989 19.3012 72.5639 20.0936L73.3733 19.5064ZM72.7286 17.04C72.7286 16.5113 72.779 15.9319 72.8821 15.3006L71.8951 15.1394C71.7849 15.8147 71.7286 16.4487 71.7286 17.04H72.7286ZM72.8814 15.3045L73.3614 12.5045L72.3758 12.3355L71.8958 15.1355L72.8814 15.3045ZM73.3611 12.5059C73.6952 10.5914 74.3875 9.21884 75.3915 8.32309C76.3912 7.43111 77.7583 6.96 79.5486 6.96V5.96C77.5789 5.96 75.9527 6.48222 74.7257 7.57691C73.503 8.66782 72.7353 10.2752 72.376 12.3341L73.3611 12.5059ZM75.3686 16.42C75.3686 17.0739 75.5182 17.6576 75.9057 18.0786C76.3004 18.5075 76.8604 18.68 77.4886 18.68V17.68C77.0368 17.68 76.7868 17.5592 76.6415 17.4014C76.489 17.2357 76.3686 16.9394 76.3686 16.42H75.3686ZM77.4886 18.68C78.2773 18.68 78.9548 18.414 79.473 17.8623L78.7442 17.1777C78.4357 17.506 78.0332 17.68 77.4886 17.68V18.68ZM79.4675 17.8681C80.0031 17.3158 80.3371 16.396 80.5412 15.2259L79.556 15.0541C79.3601 16.1774 79.0675 16.8442 78.7496 17.1719L79.4675 17.8681ZM80.5412 15.2258L81.0012 12.5858L80.016 12.4142L79.556 15.0542L80.5412 15.2258ZM81.0005 12.5894C81.084 12.1306 81.1286 11.7192 81.1286 11.36H80.1286C80.1286 11.6408 80.0932 11.9894 80.0167 12.4106L81.0005 12.5894ZM81.1286 11.36C81.1286 10.6965 80.9824 10.1055 80.6023 9.67782C80.2122 9.23895 79.6553 9.06 79.0286 9.06V10.06C79.4686 10.06 79.7117 10.181 79.8549 10.3422C80.0081 10.5145 80.1286 10.8235 80.1286 11.36H81.1286ZM79.0188 9.0601C78.2051 9.07605 77.5157 9.38467 76.9915 9.98666C76.4826 10.5711 76.1582 11.3983 75.9764 12.4118L76.9607 12.5882C77.1257 11.6684 77.4013 11.0389 77.7457 10.6433C78.0748 10.2653 78.4921 10.0706 79.0384 10.0599L79.0188 9.0601ZM75.9767 12.4106L75.4967 15.0506L76.4805 15.2294L76.9605 12.5894L75.9767 12.4106ZM75.495 15.06C75.4123 15.5704 75.3686 16.0251 75.3686 16.42H76.3686C76.3686 16.0949 76.4049 15.6963 76.4821 15.22L75.495 15.06ZM96.9913 7.6L97.3542 7.25612L97.3519 7.25373L96.9913 7.6ZM97.6313 10.36L97.1393 10.2706L97.1391 10.2717L97.6313 10.36ZM97.3513 11.92L97.8429 12.0108L97.8434 12.0083L97.3513 11.92ZM96.5113 14.02L96.1112 13.72L96.1064 13.7265L96.5113 14.02ZM95.2113 15.16L94.9977 14.7079L94.6045 14.8936L94.7339 15.3088L95.2113 15.16ZM97.0313 21V21.5H97.7108L97.5086 20.8512L97.0313 21ZM92.9913 21L92.514 21.149L92.6236 21.5H92.9913V21ZM91.3113 15.62L91.7885 15.471L91.6789 15.12H91.3113V15.62ZM90.0713 15.62V15.12H89.6417L89.577 15.5447L90.0713 15.62ZM89.2513 21V21.5H89.6808L89.7455 21.0753L89.2513 21ZM85.4113 21L84.9189 20.9131L84.8153 21.5H85.4113V21ZM87.9513 6.6V6.1H87.5317L87.4589 6.51315L87.9513 6.6ZM90.9913 9.72V9.22H90.5604L90.4967 9.64611L90.9913 9.72ZM90.4713 13.2L89.9767 13.1261L89.891 13.7H90.4713V13.2ZM93.3913 12.7L93.7593 13.0386L93.7657 13.0313L93.3913 12.7ZM93.7513 7.1C95.2191 7.1 96.1304 7.42528 96.6306 7.94627L97.3519 7.25373C96.5721 6.44139 95.3234 6.1 93.7513 6.1V7.1ZM96.6283 7.94387C97.0105 8.3473 97.2113 8.85957 97.2113 9.52H98.2113C98.2113 8.63376 97.932 7.86603 97.3542 7.25613L96.6283 7.94387ZM97.2113 9.52C97.2113 9.7534 97.1879 10.0033 97.1393 10.2706L98.1232 10.4494C98.1813 10.13 98.2113 9.81993 98.2113 9.52H97.2113ZM97.1391 10.2717L96.8591 11.8317L97.8434 12.0083L98.1234 10.4483L97.1391 10.2717ZM96.8596 11.8292C96.7092 12.6434 96.4525 13.265 96.1113 13.72L96.9112 14.32C97.37 13.7084 97.6733 12.9299 97.8429 12.0108L96.8596 11.8292ZM96.1064 13.7265C95.7574 14.2079 95.3854 14.5248 94.9977 14.7079L95.4248 15.6121C95.9971 15.3419 96.4917 14.8988 96.9161 14.3135L96.1064 13.7265ZM94.7339 15.3088L96.5539 21.1488L97.5086 20.8512L95.6886 15.0112L94.7339 15.3088ZM97.0313 20.5H92.9913V21.5H97.0313V20.5ZM93.4685 20.851L91.7885 15.471L90.834 15.769L92.514 21.149L93.4685 20.851ZM91.3113 15.12H90.0713V16.12H91.3113V15.12ZM89.577 15.5447L88.757 20.9247L89.7455 21.0753L90.5655 15.6953L89.577 15.5447ZM89.2513 20.5H85.4113V21.5H89.2513V20.5ZM85.9036 21.0869L88.4436 6.68685L87.4589 6.51315L84.9189 20.9131L85.9036 21.0869ZM87.9513 7.1H93.7513V6.1H87.9513V7.1ZM92.4913 9.22H90.9913V10.22H92.4913V9.22ZM90.4967 9.64611L89.9767 13.1261L90.9658 13.2739L91.4858 9.79389L90.4967 9.64611ZM90.4713 13.7H91.8713V12.7H90.4713V13.7ZM91.8713 13.7C92.6406 13.7 93.3159 13.5204 93.7592 13.0385L93.0233 12.3615C92.8533 12.5463 92.5153 12.7 91.8713 12.7V13.7ZM93.7657 13.0313C94.1695 12.5749 94.3513 11.9952 94.3513 11.34H93.3513C93.3513 11.8048 93.2264 12.1317 93.0168 12.3687L93.7657 13.0313ZM94.3513 11.34C94.3513 10.7422 94.2276 10.2007 93.8942 9.80351C93.5467 9.38961 93.0468 9.22 92.4913 9.22V10.22C92.8423 10.22 93.0224 10.3204 93.1283 10.4465C93.2482 10.5893 93.3513 10.8578 93.3513 11.34H94.3513ZM109.959 18.24L110.458 18.2621L110.498 17.3685L109.716 17.8029L109.959 18.24ZM109.859 20.5L110.174 20.8881L110.348 20.7464L110.358 20.5221L109.859 20.5ZM105.239 19.54L105.735 19.4829L105.583 18.1596L104.827 19.2561L105.239 19.54ZM99.3786 20.36L99.7975 20.0868L99.7902 20.0761L99.3786 20.36ZM99.0986 17.68L99.5895 17.775L99.5909 17.7675L99.0986 17.68ZM100.219 11.38V10.88H99.7996L99.7263 11.2925L100.219 11.38ZM103.619 11.38L104.111 11.467L104.215 10.88H103.619V11.38ZM102.679 16.7L102.186 16.613L102.185 16.6178L102.679 16.7ZM105.139 17.76L105.516 18.0884L105.606 17.9841L105.631 17.8479L105.139 17.76ZM106.279 11.38V10.88H105.86L105.786 11.2921L106.279 11.38ZM109.679 11.38L110.171 11.4675L110.275 10.88H109.679V11.38ZM108.559 17.68L108.066 17.5925L108.065 17.5978L108.559 17.68ZM108.039 17.92C108.039 18.1704 108.102 18.45 108.315 18.6636C108.529 18.8771 108.808 18.94 109.059 18.94V17.94C109.036 17.94 109.019 17.9386 109.007 17.9369C108.996 17.9352 108.99 17.9335 108.989 17.9332C108.988 17.9329 108.992 17.9341 108.999 17.9381C109.006 17.9423 109.014 17.9483 109.022 17.9564C109.03 17.9646 109.036 17.9727 109.04 17.9796C109.044 17.9863 109.046 17.9902 109.045 17.9894C109.045 17.9884 109.043 17.9828 109.042 17.9712C109.04 17.9595 109.039 17.9427 109.039 17.92H108.039ZM109.059 18.94C109.478 18.94 109.868 18.8626 110.201 18.6771L109.716 17.8029C109.57 17.8841 109.359 17.94 109.059 17.94V18.94ZM109.459 18.2179L109.359 20.4779L110.358 20.5221L110.458 18.2621L109.459 18.2179ZM109.543 20.1119C108.989 20.5619 108.38 20.78 107.699 20.78V21.78C108.617 21.78 109.448 21.4781 110.174 20.8881L109.543 20.1119ZM107.699 20.78C107 20.78 106.535 20.644 106.242 20.4368C105.968 20.2425 105.789 19.9469 105.735 19.4829L104.742 19.5971C104.822 20.2931 105.119 20.8675 105.665 21.2532C106.192 21.626 106.891 21.78 107.699 21.78V20.78ZM104.827 19.2561C104.116 20.2866 103.187 20.78 101.999 20.78V21.78C103.53 21.78 104.761 21.1134 105.65 19.8239L104.827 19.2561ZM101.999 20.78C100.683 20.78 100.049 20.473 99.7974 20.0869L98.9598 20.6331C99.508 21.4737 100.62 21.78 101.999 21.78V20.78ZM99.7902 20.0761C99.5841 19.7773 99.4786 19.4373 99.4786 19.04H98.4786C98.4786 19.6293 98.6398 20.1694 98.967 20.6439L99.7902 20.0761ZM99.4786 19.04C99.4786 18.5733 99.5165 18.1522 99.5895 17.775L98.6077 17.585C98.5207 18.0344 98.4786 18.5201 98.4786 19.04H99.4786ZM99.5909 17.7675L100.711 11.4675L99.7263 11.2925L98.6063 17.5925L99.5909 17.7675ZM100.219 11.88H103.619V10.88H100.219V11.88ZM103.126 11.293L102.186 16.613L103.171 16.787L104.111 11.467L103.126 11.293ZM102.185 16.6178C102.141 16.8846 102.119 17.1521 102.119 17.42H103.119C103.119 17.2079 103.136 16.9954 103.172 16.7822L102.185 16.6178ZM102.119 17.42C102.119 17.8333 102.238 18.2303 102.556 18.5137C102.864 18.7872 103.275 18.88 103.699 18.88V17.88C103.402 17.88 103.273 17.8128 103.221 17.7663C103.18 17.7297 103.119 17.6467 103.119 17.42H102.119ZM103.699 18.88C104.428 18.88 105.051 18.6218 105.516 18.0884L104.762 17.4316C104.506 17.7248 104.169 17.88 103.699 17.88V18.88ZM105.631 17.8479L106.771 11.4679L105.786 11.2921L104.646 17.6721L105.631 17.8479ZM106.279 11.88H109.679V10.88H106.279V11.88ZM109.186 11.2925L108.066 17.5925L109.051 17.7675L110.171 11.4675L109.186 11.2925ZM108.065 17.5978C108.048 17.7046 108.039 17.8121 108.039 17.92H109.039C109.039 17.8679 109.043 17.8154 109.052 17.7622L108.065 17.5978ZM115.843 14.62L115.466 14.2916L115.375 14.3965L115.351 14.5335L115.843 14.62ZM114.723 21V21.5H115.143L115.216 21.0865L114.723 21ZM111.323 21L110.831 20.913L110.727 21.5H111.323V21ZM113.023 11.38V10.88H112.604L112.531 11.293L113.023 11.38ZM116.183 11.38L116.675 11.4716L116.785 10.88H116.183V11.38ZM115.963 12.56L115.472 12.4684L116.352 12.8743L115.963 12.56ZM121.283 11.98L121.711 11.7205L121.709 11.7185L121.283 11.98ZM121.523 14.6L122.016 14.6864L122.017 14.6796L121.523 14.6ZM120.983 17.68L120.491 17.5937L120.49 17.5978L120.983 17.68ZM122.383 18.24L122.883 18.2621L122.922 17.3685L122.14 17.8029L122.383 18.24ZM122.283 20.5L122.603 20.8848L122.773 20.7434L122.783 20.5221L122.283 20.5ZM117.503 18.14L117.011 18.0512L117.011 18.0543L117.503 18.14ZM117.983 15.48L118.475 15.5688L118.476 15.5622L117.983 15.48ZM118.543 14.86C118.543 14.4992 118.455 14.1362 118.191 13.8656C117.925 13.5929 117.563 13.5 117.203 13.5V14.5C117.403 14.5 117.462 14.5504 117.476 14.5644C117.491 14.5805 117.543 14.6475 117.543 14.86H118.543ZM117.203 13.5C116.512 13.5 115.921 13.7696 115.466 14.2916L116.22 14.9484C116.486 14.6437 116.802 14.5 117.203 14.5V13.5ZM115.351 14.5335L114.231 20.9135L115.216 21.0865L116.336 14.7065L115.351 14.5335ZM114.723 20.5H111.323V21.5H114.723V20.5ZM111.816 21.087L113.516 11.467L112.531 11.293L110.831 20.913L111.816 21.087ZM113.023 11.88H116.183V10.88H113.023V11.88ZM115.692 11.2884L115.472 12.4684L116.455 12.6516L116.675 11.4716L115.692 11.2884ZM116.352 12.8743C117.049 12.0126 117.902 11.6 118.943 11.6V10.6C117.585 10.6 116.451 11.1607 115.574 12.2457L116.352 12.8743ZM118.943 11.6C120.099 11.6 120.64 11.8875 120.857 12.2415L121.709 11.7185C121.207 10.8992 120.187 10.6 118.943 10.6V11.6ZM120.856 12.2395C121.03 12.527 121.123 12.8622 121.123 13.26H122.123C122.123 12.6978 121.989 12.1797 121.711 11.7205L120.856 12.2395ZM121.123 13.26C121.123 13.7171 121.092 14.1369 121.03 14.5204L122.017 14.6796C122.088 14.2365 122.123 13.7629 122.123 13.26H121.123ZM121.031 14.5137L120.491 17.5937L121.476 17.7663L122.016 14.6863L121.031 14.5137ZM120.49 17.5978C120.473 17.6994 120.463 17.8006 120.463 17.9H121.463C121.463 17.866 121.467 17.8206 121.476 17.7622L120.49 17.5978ZM120.463 17.9C120.463 18.1715 120.541 18.4627 120.779 18.6766C121.006 18.8816 121.298 18.94 121.563 18.94V17.94C121.499 17.94 121.462 17.9326 121.444 17.9273C121.429 17.9226 121.435 17.9215 121.448 17.9334C121.462 17.9463 121.469 17.9597 121.47 17.9626C121.47 17.9626 121.463 17.945 121.463 17.9H120.463ZM121.563 18.94C121.945 18.94 122.303 18.8563 122.626 18.6771L122.14 17.8029C121.983 17.8903 121.795 17.94 121.563 17.94V18.94ZM121.884 18.2179L121.784 20.4779L122.783 20.5221L122.883 18.2621L121.884 18.2179ZM121.964 20.1152C121.425 20.5622 120.824 20.78 120.143 20.78V21.78C121.062 21.78 121.888 21.4778 122.603 20.8848L121.964 20.1152ZM120.143 20.78C119.294 20.78 118.751 20.6002 118.424 20.3268C118.115 20.0675 117.923 19.6575 117.923 19H116.923C116.923 19.8625 117.185 20.5925 117.782 21.0932C118.363 21.5798 119.179 21.78 120.143 21.78V20.78ZM117.923 19C117.923 18.7663 117.947 18.5086 117.996 18.2257L117.011 18.0543C116.953 18.3847 116.923 18.7003 116.923 19H117.923ZM117.995 18.2288L118.475 15.5688L117.491 15.3912L117.011 18.0512L117.995 18.2288ZM118.476 15.5622C118.519 15.305 118.543 15.0694 118.543 14.86H117.543C117.543 14.9973 117.527 15.175 117.49 15.3978L118.476 15.5622Z" fill="#3ECF8E"/>
<path d="M9.4922 3.43122C8.87396 4.01015 3.05218 11.6328 0.218573 15.3717C0.218573 15.3717 -0.0886455 15.8243 0.0253726 16.0954C0.103589 16.2813 0.411774 16.4572 0.411774 16.4572L6.59419 16.6381C6.59419 16.6381 3.88938 24.2365 3.88938 24.4175C3.88938 24.5985 3.99066 24.8267 4.27579 24.9603C4.56091 25.0938 4.96874 24.8542 5.04859 24.7794C5.12843 24.7046 14.5927 12.7303 14.9018 12.2961C15.2109 11.8619 14.7086 11.5725 14.5154 11.5725L8.333 11.5724C9.1702 8.91901 10.6514 4.15493 10.6514 3.43122C10.6514 3.0267 10.265 2.70756 9.4922 3.43122Z" fill="#3ECF8E"/>
</svg>
